<svg xmlns="http://www.w3.org/2000/svg" viewBox="0 0 256 256" role="img"><title>avet</title><rect width="256" height="256" rx="56.32" fill="#1b1f24"/><g transform="translate(51.20,79.63) scale(0.9674)"><defs><linearGradient id="icon-back" gradientUnits="userSpaceOnUse" x1="-0.00" y1="-11.41" x2="109.99" y2="111.41"><stop offset="0" stop-color="#dc4d80"/><stop offset="1" stop-color="#bb255c"/></linearGradient><linearGradient id="icon-front" gradientUnits="userSpaceOnUse" x1="48.80" y1="-11.41" x2="158.78" y2="111.41"><stop offset="0" stop-color="#ffc45c"/><stop offset="1" stop-color="#f39318"/></linearGradient></defs><path fill="url(#icon-back)" d="M17.85,-9.83L104.01,39.67A11.91,11.91 0 0 1 104.01,60.33L17.85,109.83A11.91,11.91 0 0 1 0.00,99.50L0.00,0.50A11.91,11.91 0 0 1 17.85,-9.83Z"/><path fill="url(#icon-front)" d="M66.65,-9.83L152.80,39.67A11.91,11.91 0 0 1 152.80,60.33L66.65,109.83A11.91,11.91 0 0 1 48.80,99.50L48.80,0.50A11.91,11.91 0 0 1 66.65,-9.83Z"/></g></svg>
